<mxfile host="65bd71144e">
    <diagram id="Gndt4bWzFEOanfgfqyMN" name="Страница 1">
        <mxGraphModel dx="2503" dy="1428" grid="0" gridSize="10" guides="1" tooltips="1" connect="1" arrows="1" fold="1" page="1" pageScale="1" pageWidth="5000" pageHeight="5000" math="0" shadow="0">
            <root>
                <mxCell id="0"/>
                <mxCell id="1" parent="0"/>
                <mxCell id="73" value="package" style="shape=folder;fontStyle=1;spacingTop=10;tabWidth=245;tabHeight=89;tabPosition=left;html=1;textOpacity=0;movable=0;resizable=0;rotatable=0;deletable=0;editable=0;connectable=0;" vertex="1" parent="1">
                    <mxGeometry x="586" y="686" width="829" height="873" as="geometry"/>
                </mxCell>
                <mxCell id="2" value="Node" style="swimlane;fontStyle=1;align=center;verticalAlign=top;childLayout=stackLayout;horizontal=1;startSize=26;horizontalStack=0;resizeParent=1;resizeParentMax=0;resizeLast=0;collapsible=1;marginBottom=0;movable=0;resizable=0;rotatable=0;deletable=0;editable=0;connectable=0;" parent="1" vertex="1">
                    <mxGeometry x="925" y="802" width="208" height="199" as="geometry"/>
                </mxCell>
                <mxCell id="3" value="- int: id&#10;- List&lt;Edge&gt;  adjacentEdges" style="text;strokeColor=none;fillColor=none;align=left;verticalAlign=top;spacingLeft=4;spacingRight=4;overflow=hidden;rotatable=0;points=[[0,0.5],[1,0.5]];portConstraint=eastwest;movable=0;resizable=0;deletable=0;editable=0;connectable=0;" parent="2" vertex="1">
                    <mxGeometry y="26" width="208" height="41" as="geometry"/>
                </mxCell>
                <mxCell id="4" value="" style="line;strokeWidth=1;fillColor=none;align=left;verticalAlign=middle;spacingTop=-1;spacingLeft=3;spacingRight=3;rotatable=0;labelPosition=right;points=[];portConstraint=eastwest;strokeColor=inherit;movable=0;resizable=0;deletable=0;editable=0;connectable=0;" parent="2" vertex="1">
                    <mxGeometry y="67" width="208" height="8" as="geometry"/>
                </mxCell>
                <mxCell id="5" value="+ getId(): int&#10;~ addEdge(Edge): void&#10;- findEdge(int): Edge&#10;~ deleteEdge(int): void&#10;~ getAdjacentEdges(): List&lt;Edge&gt;&#10;" style="text;strokeColor=none;fillColor=none;align=left;verticalAlign=top;spacingLeft=4;spacingRight=4;overflow=hidden;rotatable=0;points=[[0,0.5],[1,0.5]];portConstraint=eastwest;movable=0;resizable=0;deletable=0;editable=0;connectable=0;" parent="2" vertex="1">
                    <mxGeometry y="75" width="208" height="124" as="geometry"/>
                </mxCell>
                <mxCell id="6" value="Graph" style="swimlane;fontStyle=1;align=center;verticalAlign=top;childLayout=stackLayout;horizontal=1;startSize=26;horizontalStack=0;resizeParent=1;resizeParentMax=0;resizeLast=0;collapsible=1;marginBottom=0;movable=0;resizable=0;rotatable=0;deletable=0;editable=0;connectable=0;" parent="1" vertex="1">
                    <mxGeometry x="929" y="1067.5" width="200" height="201" as="geometry"/>
                </mxCell>
                <mxCell id="7" value="- nodes: List&lt;Node&gt;" style="text;strokeColor=none;fillColor=none;align=left;verticalAlign=top;spacingLeft=4;spacingRight=4;overflow=hidden;rotatable=0;points=[[0,0.5],[1,0.5]];portConstraint=eastwest;movable=0;resizable=0;deletable=0;editable=0;connectable=0;" parent="6" vertex="1">
                    <mxGeometry y="26" width="200" height="26" as="geometry"/>
                </mxCell>
                <mxCell id="8" value="" style="line;strokeWidth=1;fillColor=none;align=left;verticalAlign=middle;spacingTop=-1;spacingLeft=3;spacingRight=3;rotatable=0;labelPosition=right;points=[];portConstraint=eastwest;strokeColor=inherit;movable=0;resizable=0;deletable=0;editable=0;connectable=0;" parent="6" vertex="1">
                    <mxGeometry y="52" width="200" height="8" as="geometry"/>
                </mxCell>
                <mxCell id="9" value="- findNode(int): Node&#10;~ deleteNode(int): boolean&#10;~ addNode(int): boolean&#10;~ addEdge(int, int, int, int): boolean&#10;~ deleteEdge(int): boolean&#10;- getEdgesList(): List&lt;Edge&gt;&#10;+ getNodesId(): Set&lt;Integer&gt;&#10;+ getEdgesData(): List&lt;EdgeData&gt;&#10;+ isValid(): boolean" style="text;strokeColor=none;fillColor=none;align=left;verticalAlign=top;spacingLeft=4;spacingRight=4;overflow=hidden;rotatable=0;points=[[0,0.5],[1,0.5]];portConstraint=eastwest;movable=0;resizable=0;deletable=0;editable=0;connectable=0;" parent="6" vertex="1">
                    <mxGeometry y="60" width="200" height="141" as="geometry"/>
                </mxCell>
                <mxCell id="10" value="GraphBuilder" style="swimlane;fontStyle=1;align=center;verticalAlign=top;childLayout=stackLayout;horizontal=1;startSize=26;horizontalStack=0;resizeParent=1;resizeParentMax=0;resizeLast=0;collapsible=1;marginBottom=0;" parent="1" vertex="1">
                    <mxGeometry x="1094" y="1440" width="160" height="86" as="geometry"/>
                </mxCell>
                <mxCell id="11" value="+ field: type" style="text;strokeColor=none;fillColor=none;align=left;verticalAlign=top;spacingLeft=4;spacingRight=4;overflow=hidden;rotatable=0;points=[[0,0.5],[1,0.5]];portConstraint=eastwest;" parent="10" vertex="1">
                    <mxGeometry y="26" width="160" height="26" as="geometry"/>
                </mxCell>
                <mxCell id="12" value="" style="line;strokeWidth=1;fillColor=none;align=left;verticalAlign=middle;spacingTop=-1;spacingLeft=3;spacingRight=3;rotatable=0;labelPosition=right;points=[];portConstraint=eastwest;strokeColor=inherit;" parent="10" vertex="1">
                    <mxGeometry y="52" width="160" height="8" as="geometry"/>
                </mxCell>
                <mxCell id="13" value="+ method(type): type" style="text;strokeColor=none;fillColor=none;align=left;verticalAlign=top;spacingLeft=4;spacingRight=4;overflow=hidden;rotatable=0;points=[[0,0.5],[1,0.5]];portConstraint=eastwest;" parent="10" vertex="1">
                    <mxGeometry y="60" width="160" height="26" as="geometry"/>
                </mxCell>
                <mxCell id="18" value="" style="endArrow=diamondThin;endFill=1;endSize=24;html=1;movable=0;resizable=0;rotatable=0;deletable=0;editable=0;connectable=0;" parent="1" source="2" target="6" edge="1">
                    <mxGeometry width="160" relative="1" as="geometry">
                        <mxPoint x="932" y="895" as="sourcePoint"/>
                        <mxPoint x="1104" y="601" as="targetPoint"/>
                    </mxGeometry>
                </mxCell>
                <mxCell id="19" value="FileReader&#10;" style="swimlane;fontStyle=1;align=center;verticalAlign=top;childLayout=stackLayout;horizontal=1;startSize=26;horizontalStack=0;resizeParent=1;resizeParentMax=0;resizeLast=0;collapsible=1;marginBottom=0;" parent="1" vertex="1">
                    <mxGeometry x="1877" y="1529" width="160" height="86" as="geometry"/>
                </mxCell>
                <mxCell id="20" value="+ field: type" style="text;strokeColor=none;fillColor=none;align=left;verticalAlign=top;spacingLeft=4;spacingRight=4;overflow=hidden;rotatable=0;points=[[0,0.5],[1,0.5]];portConstraint=eastwest;" parent="19" vertex="1">
                    <mxGeometry y="26" width="160" height="26" as="geometry"/>
                </mxCell>
                <mxCell id="21" value="" style="line;strokeWidth=1;fillColor=none;align=left;verticalAlign=middle;spacingTop=-1;spacingLeft=3;spacingRight=3;rotatable=0;labelPosition=right;points=[];portConstraint=eastwest;strokeColor=inherit;" parent="19" vertex="1">
                    <mxGeometry y="52" width="160" height="8" as="geometry"/>
                </mxCell>
                <mxCell id="22" value="+ method(type): type" style="text;strokeColor=none;fillColor=none;align=left;verticalAlign=top;spacingLeft=4;spacingRight=4;overflow=hidden;rotatable=0;points=[[0,0.5],[1,0.5]];portConstraint=eastwest;" parent="19" vertex="1">
                    <mxGeometry y="60" width="160" height="26" as="geometry"/>
                </mxCell>
                <mxCell id="23" value="Use" style="endArrow=open;endSize=12;dashed=1;html=1;textOpacity=0;movable=0;resizable=0;rotatable=0;deletable=0;editable=0;connectable=0;" parent="1" source="10" target="6" edge="1">
                    <mxGeometry width="160" relative="1" as="geometry">
                        <mxPoint x="1321" y="845" as="sourcePoint"/>
                        <mxPoint x="1481" y="845" as="targetPoint"/>
                        <Array as="points">
                            <mxPoint x="828" y="1483"/>
                            <mxPoint x="828" y="1168"/>
                        </Array>
                    </mxGeometry>
                </mxCell>
                <mxCell id="28" value="StepMessage" style="swimlane;fontStyle=1;align=center;verticalAlign=top;childLayout=stackLayout;horizontal=1;startSize=26;horizontalStack=0;resizeParent=1;resizeParentMax=0;resizeLast=0;collapsible=1;marginBottom=0;movable=1;resizable=1;rotatable=1;deletable=1;editable=1;connectable=1;" parent="1" vertex="1">
                    <mxGeometry x="1466.5" y="822" width="201" height="179" as="geometry"/>
                </mxCell>
                <mxCell id="29" value="- messageType: StepMessageType&#10;- edgeId: int&#10;- firstNodeId: int&#10;- secondNodeId: int" style="text;strokeColor=none;fillColor=none;align=left;verticalAlign=top;spacingLeft=4;spacingRight=4;overflow=hidden;rotatable=1;points=[[0,0.5],[1,0.5]];portConstraint=eastwest;movable=1;resizable=1;deletable=1;editable=1;connectable=1;" parent="28" vertex="1">
                    <mxGeometry y="26" width="201" height="72" as="geometry"/>
                </mxCell>
                <mxCell id="30" value="" style="line;strokeWidth=1;fillColor=none;align=left;verticalAlign=middle;spacingTop=-1;spacingLeft=3;spacingRight=3;rotatable=1;labelPosition=right;points=[];portConstraint=eastwest;strokeColor=inherit;movable=1;resizable=1;deletable=1;editable=1;connectable=1;" parent="28" vertex="1">
                    <mxGeometry y="98" width="201" height="8" as="geometry"/>
                </mxCell>
                <mxCell id="31" value="+ getEdgeId(): int&#10;+ isIncluded(): boolean&#10;+ getFirstNodeId(): int&#10;+ getSecondNodeId(): int " style="text;strokeColor=none;fillColor=none;align=left;verticalAlign=top;spacingLeft=4;spacingRight=4;overflow=hidden;rotatable=1;points=[[0,0.5],[1,0.5]];portConstraint=eastwest;movable=1;resizable=1;deletable=1;editable=1;connectable=1;" parent="28" vertex="1">
                    <mxGeometry y="106" width="201" height="73" as="geometry"/>
                </mxCell>
                <mxCell id="32" value="Kraskal" style="swimlane;fontStyle=1;align=center;verticalAlign=top;childLayout=stackLayout;horizontal=1;startSize=26;horizontalStack=0;resizeParent=1;resizeParentMax=0;resizeLast=0;collapsible=1;marginBottom=0;" parent="1" vertex="1">
                    <mxGeometry x="1472.5" y="1097.5" width="189" height="141" as="geometry"/>
                </mxCell>
                <mxCell id="33" value="- edges: List&lt;EdgeData&gt;&#10;- connectedNodes: Set&lt;Integer&gt;&#10;- edgeNumber: int&#10;- edgesWeightSum: int" style="text;strokeColor=none;fillColor=none;align=left;verticalAlign=top;spacingLeft=4;spacingRight=4;overflow=hidden;rotatable=0;points=[[0,0.5],[1,0.5]];portConstraint=eastwest;" parent="32" vertex="1">
                    <mxGeometry y="26" width="189" height="66" as="geometry"/>
                </mxCell>
                <mxCell id="34" value="" style="line;strokeWidth=1;fillColor=none;align=left;verticalAlign=middle;spacingTop=-1;spacingLeft=3;spacingRight=3;rotatable=0;labelPosition=right;points=[];portConstraint=eastwest;strokeColor=inherit;" parent="32" vertex="1">
                    <mxGeometry y="92" width="189" height="8" as="geometry"/>
                </mxCell>
                <mxCell id="35" value="+ makeStep(): StepMessage&#10;+ getCurrentTreeWeight(): int" style="text;strokeColor=none;fillColor=none;align=left;verticalAlign=top;spacingLeft=4;spacingRight=4;overflow=hidden;rotatable=0;points=[[0,0.5],[1,0.5]];portConstraint=eastwest;" parent="32" vertex="1">
                    <mxGeometry y="100" width="189" height="41" as="geometry"/>
                </mxCell>
                <mxCell id="36" value="Use" style="endArrow=open;endSize=12;dashed=1;html=1;textOpacity=0;" parent="1" source="32" target="28" edge="1">
                    <mxGeometry width="160" relative="1" as="geometry">
                        <mxPoint x="1292" y="1024" as="sourcePoint"/>
                        <mxPoint x="1292" y="1111" as="targetPoint"/>
                        <Array as="points"/>
                    </mxGeometry>
                </mxCell>
                <mxCell id="39" value="Mediator" style="swimlane;fontStyle=1;align=center;verticalAlign=top;childLayout=stackLayout;horizontal=1;startSize=26;horizontalStack=0;resizeParent=1;resizeParentMax=0;resizeLast=0;collapsible=1;marginBottom=0;" parent="1" vertex="1">
                    <mxGeometry x="1803.5" y="1098" width="181" height="86" as="geometry"/>
                </mxCell>
                <mxCell id="40" value="+ field: type" style="text;strokeColor=none;fillColor=none;align=left;verticalAlign=top;spacingLeft=4;spacingRight=4;overflow=hidden;rotatable=0;points=[[0,0.5],[1,0.5]];portConstraint=eastwest;" parent="39" vertex="1">
                    <mxGeometry y="26" width="181" height="26" as="geometry"/>
                </mxCell>
                <mxCell id="41" value="" style="line;strokeWidth=1;fillColor=none;align=left;verticalAlign=middle;spacingTop=-1;spacingLeft=3;spacingRight=3;rotatable=0;labelPosition=right;points=[];portConstraint=eastwest;strokeColor=inherit;" parent="39" vertex="1">
                    <mxGeometry y="52" width="181" height="8" as="geometry"/>
                </mxCell>
                <mxCell id="42" value="+ method(type): type" style="text;strokeColor=none;fillColor=none;align=left;verticalAlign=top;spacingLeft=4;spacingRight=4;overflow=hidden;rotatable=0;points=[[0,0.5],[1,0.5]];portConstraint=eastwest;" parent="39" vertex="1">
                    <mxGeometry y="60" width="181" height="26" as="geometry"/>
                </mxCell>
                <mxCell id="43" value="Application&#10;" style="swimlane;fontStyle=1;align=center;verticalAlign=top;childLayout=stackLayout;horizontal=1;startSize=26;horizontalStack=0;resizeParent=1;resizeParentMax=0;resizeLast=0;collapsible=1;marginBottom=0;" parent="1" vertex="1">
                    <mxGeometry x="1814" y="596" width="160" height="86" as="geometry"/>
                </mxCell>
                <mxCell id="44" value="+ field: type" style="text;strokeColor=none;fillColor=none;align=left;verticalAlign=top;spacingLeft=4;spacingRight=4;overflow=hidden;rotatable=0;points=[[0,0.5],[1,0.5]];portConstraint=eastwest;" parent="43" vertex="1">
                    <mxGeometry y="26" width="160" height="26" as="geometry"/>
                </mxCell>
                <mxCell id="45" value="" style="line;strokeWidth=1;fillColor=none;align=left;verticalAlign=middle;spacingTop=-1;spacingLeft=3;spacingRight=3;rotatable=0;labelPosition=right;points=[];portConstraint=eastwest;strokeColor=inherit;" parent="43" vertex="1">
                    <mxGeometry y="52" width="160" height="8" as="geometry"/>
                </mxCell>
                <mxCell id="46" value="+ method(type): type" style="text;strokeColor=none;fillColor=none;align=left;verticalAlign=top;spacingLeft=4;spacingRight=4;overflow=hidden;rotatable=0;points=[[0,0.5],[1,0.5]];portConstraint=eastwest;" parent="43" vertex="1">
                    <mxGeometry y="60" width="160" height="26" as="geometry"/>
                </mxCell>
                <mxCell id="47" value="" style="endArrow=diamondThin;endFill=1;endSize=24;html=1;" parent="1" source="39" target="43" edge="1">
                    <mxGeometry width="160" relative="1" as="geometry">
                        <mxPoint x="1802" y="1018" as="sourcePoint"/>
                        <mxPoint x="1962" y="1018" as="targetPoint"/>
                    </mxGeometry>
                </mxCell>
                <mxCell id="56" value="" style="endArrow=diamondThin;endFill=0;endSize=24;html=1;strokeWidth=1;sourcePerimeterSpacing=0;targetPerimeterSpacing=0;" parent="1" source="32" target="39" edge="1">
                    <mxGeometry width="160" relative="1" as="geometry">
                        <mxPoint x="2278" y="1152.996441281139" as="sourcePoint"/>
                        <mxPoint x="1994.5" y="1151.4830960854092" as="targetPoint"/>
                    </mxGeometry>
                </mxCell>
                <mxCell id="57" value="" style="endArrow=diamondThin;endFill=0;endSize=24;html=1;strokeWidth=1;sourcePerimeterSpacing=0;targetPerimeterSpacing=0;" parent="1" source="19" target="39" edge="1">
                    <mxGeometry width="160" relative="1" as="geometry">
                        <mxPoint x="2288" y="1162.996441281139" as="sourcePoint"/>
                        <mxPoint x="2004.5" y="1161.4830960854092" as="targetPoint"/>
                        <Array as="points"/>
                    </mxGeometry>
                </mxCell>
                <mxCell id="58" value="Use" style="endArrow=open;endSize=12;dashed=1;html=1;strokeWidth=1;sourcePerimeterSpacing=0;targetPerimeterSpacing=0;textOpacity=0;" parent="1" source="39" target="28" edge="1">
                    <mxGeometry width="160" relative="1" as="geometry">
                        <mxPoint x="1760" y="1289" as="sourcePoint"/>
                        <mxPoint x="1968" y="1221" as="targetPoint"/>
                    </mxGeometry>
                </mxCell>
                <mxCell id="59" value="Edge" style="swimlane;fontStyle=1;align=center;verticalAlign=top;childLayout=stackLayout;horizontal=1;startSize=26;horizontalStack=0;resizeParent=1;resizeParentMax=0;resizeLast=0;collapsible=1;marginBottom=0;movable=0;resizable=0;rotatable=0;deletable=0;editable=0;connectable=0;" vertex="1" parent="1">
                    <mxGeometry x="604" y="808.5" width="194" height="186" as="geometry"/>
                </mxCell>
                <mxCell id="60" value="- firstNode: Node&#10;- secondNode: Node&#10;- weight: int&#10;- id: int" style="text;strokeColor=none;fillColor=none;align=left;verticalAlign=top;spacingLeft=4;spacingRight=4;overflow=hidden;rotatable=0;points=[[0,0.5],[1,0.5]];portConstraint=eastwest;movable=0;resizable=0;deletable=0;editable=0;connectable=0;" vertex="1" parent="59">
                    <mxGeometry y="26" width="194" height="67" as="geometry"/>
                </mxCell>
                <mxCell id="61" value="" style="line;strokeWidth=1;fillColor=none;align=left;verticalAlign=middle;spacingTop=-1;spacingLeft=3;spacingRight=3;rotatable=0;labelPosition=right;points=[];portConstraint=eastwest;strokeColor=inherit;movable=0;resizable=0;deletable=0;editable=0;connectable=0;" vertex="1" parent="59">
                    <mxGeometry y="93" width="194" height="8" as="geometry"/>
                </mxCell>
                <mxCell id="62" value="~ getId(): int&#10;~ getWeight(): int&#10;~ getSecondNode(): Node&#10;~ getFirstNode(): Node&#10;~ getAdjacentNode(Node): Node&#10;" style="text;strokeColor=none;fillColor=none;align=left;verticalAlign=top;spacingLeft=4;spacingRight=4;overflow=hidden;rotatable=0;points=[[0,0.5],[1,0.5]];portConstraint=eastwest;movable=0;resizable=0;deletable=0;editable=0;connectable=0;" vertex="1" parent="59">
                    <mxGeometry y="101" width="194" height="85" as="geometry"/>
                </mxCell>
                <mxCell id="63" value="" style="endArrow=diamondThin;endFill=1;endSize=24;html=1;movable=0;resizable=0;rotatable=0;deletable=0;editable=0;connectable=0;" edge="1" parent="1" source="59" target="2">
                    <mxGeometry width="160" relative="1" as="geometry">
                        <mxPoint x="834" y="1014" as="sourcePoint"/>
                        <mxPoint x="994" y="1014" as="targetPoint"/>
                    </mxGeometry>
                </mxCell>
                <mxCell id="65" value="EdgeData" style="swimlane;fontStyle=1;align=center;verticalAlign=top;childLayout=stackLayout;horizontal=1;startSize=26;horizontalStack=0;resizeParent=1;resizeParentMax=0;resizeLast=0;collapsible=1;marginBottom=0;movable=1;resizable=1;rotatable=1;deletable=1;editable=1;connectable=1;" vertex="1" parent="1">
                    <mxGeometry x="1233" y="791" width="160" height="161" as="geometry"/>
                </mxCell>
                <mxCell id="68" value="+ getId(): int&#10;+ getWeight(): int&#10;+ getFirstNodeId(): int&#10;+ getSecondNodeId(): int " style="text;strokeColor=none;fillColor=none;align=left;verticalAlign=top;spacingLeft=4;spacingRight=4;overflow=hidden;rotatable=1;points=[[0,0.5],[1,0.5]];portConstraint=eastwest;movable=1;resizable=1;deletable=1;editable=1;connectable=1;" vertex="1" parent="65">
                    <mxGeometry y="26" width="160" height="68" as="geometry"/>
                </mxCell>
                <mxCell id="66" value="- id: int&#10;- weight: int&#10;- firstNodeId: int&#10;- secondNodeId: int" style="text;strokeColor=none;fillColor=none;align=left;verticalAlign=top;spacingLeft=4;spacingRight=4;overflow=hidden;rotatable=1;points=[[0,0.5],[1,0.5]];portConstraint=eastwest;movable=1;resizable=1;deletable=1;editable=1;connectable=1;" vertex="1" parent="65">
                    <mxGeometry y="94" width="160" height="67" as="geometry"/>
                </mxCell>
                <mxCell id="67" value="" style="line;strokeWidth=1;fillColor=none;align=left;verticalAlign=middle;spacingTop=-1;spacingLeft=3;spacingRight=3;rotatable=0;labelPosition=right;points=[];portConstraint=eastwest;strokeColor=inherit;movable=0;resizable=0;deletable=0;editable=0;connectable=0;" vertex="1" parent="65">
                    <mxGeometry y="90" width="160" height="8" as="geometry"/>
                </mxCell>
                <mxCell id="69" value="Use" style="endArrow=open;endSize=12;dashed=1;html=1;textOpacity=0;movable=0;resizable=0;rotatable=0;deletable=0;editable=0;connectable=0;" edge="1" parent="1" source="65" target="6">
                    <mxGeometry width="160" relative="1" as="geometry">
                        <mxPoint x="1360" y="978" as="sourcePoint"/>
                        <mxPoint x="1520" y="978" as="targetPoint"/>
                        <Array as="points">
                            <mxPoint x="1172" y="872"/>
                            <mxPoint x="1172" y="1168"/>
                        </Array>
                    </mxGeometry>
                </mxCell>
                <mxCell id="72" value="" style="endArrow=diamondThin;endFill=1;endSize=24;html=1;movable=0;resizable=0;rotatable=0;deletable=0;editable=0;connectable=0;" edge="1" parent="1" source="65" target="32">
                    <mxGeometry width="160" relative="1" as="geometry">
                        <mxPoint x="1360" y="978" as="sourcePoint"/>
                        <mxPoint x="1520" y="978" as="targetPoint"/>
                        <Array as="points">
                            <mxPoint x="1313" y="1168"/>
                        </Array>
                    </mxGeometry>
                </mxCell>
                <mxCell id="74" value="&lt;font style=&quot;font-size: 32px;&quot;&gt;graph&lt;/font&gt;" style="text;html=1;strokeColor=none;fillColor=none;align=center;verticalAlign=middle;whiteSpace=wrap;rounded=0;" vertex="1" parent="1">
                    <mxGeometry x="586" y="686" width="245" height="88" as="geometry"/>
                </mxCell>
                <mxCell id="77" value="«enumeration»&#10;StepMessageType" style="swimlane;fontStyle=2;childLayout=stackLayout;horizontal=1;startSize=49;fillColor=none;horizontalStack=0;resizeParent=1;resizeParentMax=0;resizeLast=0;collapsible=1;marginBottom=0;fontSize=16;" vertex="1" parent="1">
                    <mxGeometry x="1487" y="615" width="163" height="115" as="geometry"/>
                </mxCell>
                <mxCell id="78" value="EDGEADDED&#10;EDGEDECLINED&#10;ALGORITHMENDED" style="text;strokeColor=none;fillColor=none;align=left;verticalAlign=top;spacingLeft=4;spacingRight=4;overflow=hidden;rotatable=0;points=[[0,0.5],[1,0.5]];portConstraint=eastwest;fontSize=15;" vertex="1" parent="77">
                    <mxGeometry y="49" width="163" height="66" as="geometry"/>
                </mxCell>
                <mxCell id="82" value="" style="endArrow=diamondThin;endFill=1;endSize=24;html=1;fontSize=16;" edge="1" parent="1" source="77" target="28">
                    <mxGeometry width="160" relative="1" as="geometry">
                        <mxPoint x="1610" y="706" as="sourcePoint"/>
                        <mxPoint x="1604" y="794" as="targetPoint"/>
                    </mxGeometry>
                </mxCell>
                <mxCell id="83" value="NodeView" style="html=1;fontSize=15;" vertex="1" parent="1">
                    <mxGeometry x="2709" y="977" width="152" height="75" as="geometry"/>
                </mxCell>
                <mxCell id="84" value="EdgeView" style="html=1;fontSize=15;" vertex="1" parent="1">
                    <mxGeometry x="2709" y="850" width="152" height="75" as="geometry"/>
                </mxCell>
                <mxCell id="85" value="ShapeContainer" style="html=1;fontSize=15;" vertex="1" parent="1">
                    <mxGeometry x="2432" y="902" width="152" height="75" as="geometry"/>
                </mxCell>
                <mxCell id="86" value="ShapeController" style="html=1;fontSize=15;" vertex="1" parent="1">
                    <mxGeometry x="2432" y="1315" width="152" height="75" as="geometry"/>
                </mxCell>
                <mxCell id="87" value="Screen" style="html=1;fontSize=15;" vertex="1" parent="1">
                    <mxGeometry x="2117" y="902" width="152" height="75" as="geometry"/>
                </mxCell>
                <mxCell id="88" value="" style="endArrow=diamondThin;endFill=1;endSize=24;html=1;fontSize=15;" edge="1" parent="1" source="83" target="85">
                    <mxGeometry width="160" relative="1" as="geometry">
                        <mxPoint x="2043" y="1304" as="sourcePoint"/>
                        <mxPoint x="2203" y="1304" as="targetPoint"/>
                        <Array as="points">
                            <mxPoint x="2644" y="940"/>
                        </Array>
                    </mxGeometry>
                </mxCell>
                <mxCell id="89" value="" style="endArrow=diamondThin;endFill=1;endSize=24;html=1;fontSize=15;" edge="1" parent="1" source="84" target="85">
                    <mxGeometry width="160" relative="1" as="geometry">
                        <mxPoint x="2043" y="1304" as="sourcePoint"/>
                        <mxPoint x="2203" y="1304" as="targetPoint"/>
                        <Array as="points">
                            <mxPoint x="2645" y="940"/>
                        </Array>
                    </mxGeometry>
                </mxCell>
                <mxCell id="90" value="Use" style="endArrow=open;endSize=12;dashed=1;html=1;fontSize=15;textOpacity=0;" edge="1" parent="1" source="87" target="85">
                    <mxGeometry width="160" relative="1" as="geometry">
                        <mxPoint x="2280" y="1206" as="sourcePoint"/>
                        <mxPoint x="2385" y="1172" as="targetPoint"/>
                    </mxGeometry>
                </mxCell>
                <mxCell id="92" value="" style="endArrow=diamondThin;endFill=0;endSize=24;html=1;fontSize=15;" edge="1" parent="1" source="85" target="86">
                    <mxGeometry width="160" relative="1" as="geometry">
                        <mxPoint x="2447" y="1182" as="sourcePoint"/>
                        <mxPoint x="2607" y="1182" as="targetPoint"/>
                    </mxGeometry>
                </mxCell>
                <mxCell id="93" value="Actioncontroller" style="html=1;fontSize=15;" vertex="1" parent="1">
                    <mxGeometry x="2117" y="1103.5" width="152" height="75" as="geometry"/>
                </mxCell>
                <mxCell id="95" value="" style="endArrow=diamondThin;endFill=1;endSize=24;html=1;fontSize=15;" edge="1" parent="1" source="93" target="87">
                    <mxGeometry width="160" relative="1" as="geometry">
                        <mxPoint x="2290" y="1120" as="sourcePoint"/>
                        <mxPoint x="2450" y="1120" as="targetPoint"/>
                    </mxGeometry>
                </mxCell>
                <mxCell id="96" value="" style="endArrow=diamondThin;endFill=0;endSize=24;html=1;fontSize=15;" edge="1" parent="1" source="93" target="39">
                    <mxGeometry width="160" relative="1" as="geometry">
                        <mxPoint x="2069" y="1075" as="sourcePoint"/>
                        <mxPoint x="2229" y="1075" as="targetPoint"/>
                    </mxGeometry>
                </mxCell>
                <mxCell id="97" value="FileWriter" style="swimlane;fontStyle=1;align=center;verticalAlign=top;childLayout=stackLayout;horizontal=1;startSize=26;horizontalStack=0;resizeParent=1;resizeParentMax=0;resizeLast=0;collapsible=1;marginBottom=0;" vertex="1" parent="1">
                    <mxGeometry x="1643.5" y="1529" width="160" height="86" as="geometry"/>
                </mxCell>
                <mxCell id="98" value="+ field: type" style="text;strokeColor=none;fillColor=none;align=left;verticalAlign=top;spacingLeft=4;spacingRight=4;overflow=hidden;rotatable=0;points=[[0,0.5],[1,0.5]];portConstraint=eastwest;" vertex="1" parent="97">
                    <mxGeometry y="26" width="160" height="26" as="geometry"/>
                </mxCell>
                <mxCell id="99" value="" style="line;strokeWidth=1;fillColor=none;align=left;verticalAlign=middle;spacingTop=-1;spacingLeft=3;spacingRight=3;rotatable=0;labelPosition=right;points=[];portConstraint=eastwest;strokeColor=inherit;" vertex="1" parent="97">
                    <mxGeometry y="52" width="160" height="8" as="geometry"/>
                </mxCell>
                <mxCell id="100" value="+ method(type): type" style="text;strokeColor=none;fillColor=none;align=left;verticalAlign=top;spacingLeft=4;spacingRight=4;overflow=hidden;rotatable=0;points=[[0,0.5],[1,0.5]];portConstraint=eastwest;" vertex="1" parent="97">
                    <mxGeometry y="60" width="160" height="26" as="geometry"/>
                </mxCell>
                <mxCell id="102" value="" style="endArrow=diamondThin;endFill=0;endSize=24;html=1;fontSize=15;" edge="1" parent="1" source="97" target="39">
                    <mxGeometry width="160" relative="1" as="geometry">
                        <mxPoint x="2017" y="1282" as="sourcePoint"/>
                        <mxPoint x="2177" y="1282" as="targetPoint"/>
                        <Array as="points"/>
                    </mxGeometry>
                </mxCell>
                <mxCell id="103" value="" style="endArrow=diamondThin;endFill=1;endSize=24;html=1;fontSize=15;" edge="1" parent="1" source="10" target="39">
                    <mxGeometry width="160" relative="1" as="geometry">
                        <mxPoint x="1431" y="1426" as="sourcePoint"/>
                        <mxPoint x="1591" y="1426" as="targetPoint"/>
                        <Array as="points"/>
                    </mxGeometry>
                </mxCell>
                <mxCell id="105" value="Use" style="endArrow=open;endSize=12;dashed=1;html=1;fontSize=15;textOpacity=0;" edge="1" parent="1" source="10" target="19">
                    <mxGeometry width="160" relative="1" as="geometry">
                        <mxPoint x="1264" y="1505.9572338489538" as="sourcePoint"/>
                        <mxPoint x="1653.5" y="1569.0427661510462" as="targetPoint"/>
                        <Array as="points">
                            <mxPoint x="1174" y="1707"/>
                            <mxPoint x="1957" y="1707"/>
                        </Array>
                    </mxGeometry>
                </mxCell>
                <mxCell id="106" value="" style="endArrow=diamondThin;endFill=0;endSize=24;html=1;fontSize=15;" edge="1" parent="1" source="86" target="39">
                    <mxGeometry width="160" relative="1" as="geometry">
                        <mxPoint x="2140" y="1382" as="sourcePoint"/>
                        <mxPoint x="2300" y="1382" as="targetPoint"/>
                    </mxGeometry>
                </mxCell>
                <mxCell id="107" value="Use" style="endArrow=open;endSize=12;dashed=1;html=1;fontSize=15;textOpacity=0;" edge="1" parent="1" source="86" target="19">
                    <mxGeometry width="160" relative="1" as="geometry">
                        <mxPoint x="2140" y="1382" as="sourcePoint"/>
                        <mxPoint x="2300" y="1382" as="targetPoint"/>
                        <Array as="points">
                            <mxPoint x="2508" y="1708"/>
                            <mxPoint x="1957" y="1708"/>
                        </Array>
                    </mxGeometry>
                </mxCell>
            </root>
        </mxGraphModel>
    </diagram>
</mxfile>